<svg width="531" height="866" viewBox="0 0 531 866" fill="none" xmlns="http://www.w3.org/2000/svg">
<path id="giselle" d="M54.5 139.5L61.5 66.5C77 -0.499992 134 -1.49999 160.5 1.00001C181.7 3.00001 201 28.1667 208 40.5L244.5 139.5L293.5 287L349 473L430 647L458 661L514 680L530.5 693.5V709.5L514 723.5L453 709.5L467.5 739.5L458 750L385.5 680L375 638L359 605L303.5 510L273 444L253.5 459.5L224.5 432.5C223 443.833 220 467.8 220 473C220 478.2 223 499.833 224.5 510L243 548.5L253.5 587V615L249 656.5L220 717.5L249 865.5H0.5L76 693.5L67.5 638V569.5V505L54.5 403.5L46 380V359.5L76 311.5L80 280L54.5 139.5Z" fill="#D9D9D9"/>
</svg>
